0
SECTION
2
HEADER
9
$INSUNITS
70
4
9
$ACADVER
1
AC1014
9
$HANDSEED
5
FFFF
0
ENDSEC
0
SECTION
2
TABLES
0
TABLE
2
VPORT
5
8
100
AcDbSymbolTable
0
ENDTAB
0
TABLE
2
LTYPE
5
5
100
AcDbSymbolTable
0
LTYPE
5
14
100
AcDbSymbolTableRecord
100
AcDbLinetypeTableRecord
2
BYBLOCK
70
0
0
LTYPE
5
15
100
AcDbSymbolTableRecord
100
AcDbLinetypeTableRecord
2
BYLAYER
70
0
0
ENDTAB
0
TABLE
2
LAYER
5
2
100
AcDbSymbolTable
70
2
0
LAYER
5
50
100
AcDbSymbolTableRecord
100
AcDbLayerTableRecord
2
0
70
0
6
CONTINUOUS
0
ENDTAB
0
TABLE
2
STYLE
5
3
100
AcDbSymbolTable
70
1
0
STYLE
5
11
100
AcDbSymbolTableRecord
100
AcDbTextStyleTableRecord
2
STANDARD
70
0
0
ENDTAB
0
TABLE
2
VIEW
5
6
100
AcDbSymbolTable
70
0
0
ENDTAB
0
TABLE
2
UCS
5
7
100
AcDbSymbolTable
70
0
0
ENDTAB
0
TABLE
2
APPID
5
9
100
AcDbSymbolTable
70
2
0
APPID
5
12
100
AcDbSymbolTableRecord
100
AcDbRegAppTableRecord
2
ACAD
70
0
0
ENDTAB
0
TABLE
2
DIMSTYLE
5
A
100
AcDbSymbolTable
70
1
0
ENDTAB
0
TABLE
2
BLOCK_RECORD
5
1
100
AcDbSymbolTable
70
1
0
BLOCK_RECORD
5
1F
100
AcDbSymbolTableRecord
100
AcDbBlockTableRecord
2
*MODEL_SPACE
0
BLOCK_RECORD
5
1B
100
AcDbSymbolTableRecord
100
AcDbBlockTableRecord
2
*PAPER_SPACE
0
ENDTAB
0
ENDSEC
0
SECTION
2
BLOCKS
0
BLOCK
5
20
100
AcDbEntity
100
AcDbBlockBegin
2
*MODEL_SPACE
0
ENDBLK
5
21
100
AcDbEntity
100
AcDbBlockEnd
0
BLOCK
5
1C
100
AcDbEntity
100
AcDbBlockBegin
2
*PAPER_SPACE
0
ENDBLK
5
1D
100
AcDbEntity
100
AcDbBlockEnd
0
ENDSEC
0
SECTION
2
ENTITIES
0
LWPOLYLINE
5
100
100
AcDbEntity
8
0
100
AcDbPolyline
90
46
70
1
43
0.0
10
141.99999999999864
20
197.68999999999309
10
-142.00000000000139
20
197.68999999999309
42
0.41421356237309503
10
-143.00000000000139
20
196.68999999999306
10
-143.00000000000136
20
178.18999999999306
42
-0.043660942908518019
10
-143.31903718674508
20
174.54338826898703
10
-152.10985286206244
20
124.6881951499511
42
-0.31529878887900475
10
-155.35449116344327
20
121.44355684856933
10
-200.3533882689953
20
113.50903718673676
42
-0.043660942908514237
10
-204.00000000000136
20
113.18999999999306
10
-262.50000000000136
20
113.18999999999306
42
0.41421356237309503
10
-263.50000000000142
20
112.18999999999306
10
-263.50000000000142
20
-239.81000000000699
42
0.41421356237309503
10
-262.50000000000136
20
-240.81000000000697
10
-244.00000000000136
20
-240.81000000000694
42
-0.41421356237309503
10
-243.00000000000136
20
-241.81000000000694
10
-243.00000000000142
20
-260.31000000000694
42
0.41421356237309503
10
-242.00000000000142
20
-261.31000000000694
10
-73.500000000001407
20
-261.31000000000699
42
0.41421356237309681
10
-70.500000000001393
20
-258.31000000000694
10
-70.500000000001407
20
-222.81000000000694
42
-0.41421356237309503
10
-67.500000000001393
20
-219.81000000000694
10
-36.54899894514439
20
-219.81000000000694
42
0.32733339675449896
10
-34.641565043647788
20
-218.411411599015
10
-26.663170458636408
20
-193.10717680198991
42
-0.32733339675443168
10
-22.848302655643494
20
-190.31000000000694
10
22.848302655640701
20
-190.31000000000694
42
-0.3273333967544319
10
26.66317045863363
20
-193.10717680198991
10
40.028055965711324
20
-235.49517821041692
42
-0.076506905504388018
10
40.999999999998607
20
-241.81000000000694
10
40.999999999998607
20
-258.31000000000694
42
0.4142135623730942
10
43.999999999998593
20
-261.31000000000699
10
241.99999999999864
20
-261.31000000000699
42
0.41421356237309503
10
242.99999999999866
20
-260.31000000000694
10
242.99999999999858
20
-241.81000000000694
42
-0.41421356237309503
10
243.99999999999861
20
-240.81000000000694
10
262.49999999999869
20
-240.81000000000697
42
0.41421356237309503
10
263.49999999999869
20
-239.81000000000694
10
263.49999999999864
20
112.18999999999309
42
0.41421356237308982
10
262.49999999999864
20
113.18999999999308
10
203.99999999999861
20
113.18999999999266
42
-0.043660942908504224
10
200.35338826899346
20
113.50903718673621
10
155.35449116344046
20
121.44355684856933
42
-0.31529878887900314
10
152.10985286205968
20
124.6881951499511
10
143.31903718674232
20
174.54338826898697
42
-0.043660942908518352
10
142.99999999999861
20
178.18999999999306
10
142.99999999999861
20
196.68999999999306
42
0.41421356237309503
0
SPLINE
5
101
100
AcDbEntity
8
0
100
AcDbSpline
70
4
71
3
72
8
73
4
74
0
42
0.000000001
43
0.0000000001
44
0.0000000001
40
-1
40
-1
40
-1
40
-1
40
-0
40
-0
40
-0
40
-0
41
1
41
1
41
1
41
1
10
-112.23093005846293
20
47.307765860348056
30
0
10
-112.55029319626593
20
47.744789101552158
30
0
10
-112.91167779956938
20
48.25745098065704
30
0
10
-113.02933790297048
20
48.450749721958871
30
0
0
LINE
5
102
100
AcDbEntity
8
0
100
AcDbLine
10
-113.0293379029705
20
48.450749721958871
30
0
11
-113.24784952357255
21
48.786921445962022
31
0
0
LINE
5
103
100
AcDbEntity
8
0
100
AcDbLine
10
-113.24784952357255
20
48.786921445962022
30
0
11
-104.91079076829359
21
53.342048306205207
31
0
0
LINE
5
104
100
AcDbEntity
8
0
100
AcDbLine
10
-104.91079076829359
20
53.342048306205207
30
0
11
-104.49057611328961
21
52.778960668499849
31
0
0
SPLINE
5
105
100
AcDbEntity
8
0
100
AcDbSpline
70
4
71
3
72
8
73
4
74
0
42
0.000000001
43
0.0000000001
44
0.0000000001
40
-1
40
-1
40
-1
40
-1
40
-0
40
-0
40
-0
40
-0
41
1
41
1
41
1
41
1
10
-104.49057611328962
20
52.778960668499849
30
0
10
-101.44822201106079
20
48.736495687361568
30
0
10
-96.876286564617487
20
46.702656757142321
30
0
10
-92.018605152771485
20
47.232127222447303
30
0
0
SPLINE
5
106
100
AcDbEntity
8
0
100
AcDbSpline
70
4
71
3
72
8
73
4
74
0
42
0.000000001
43
0.0000000001
44
0.0000000001
40
-1
40
-1
40
-1
40
-1
40
-0
40
-0
40
-0
40
-0
41
1
41
1
41
1
41
1
10
-92.018605152771485
20
47.232127222447303
30
0
10
-90.909238463560968
20
47.349787325848439
30
0
10
-89.732637429549825
20
47.593511825750753
30
0
10
-88.791356602340926
20
47.89606637735362
30
0
0
SPLINE
5
107
100
AcDbEntity
8
0
100
AcDbSpline
70
4
71
3
72
8
73
4
74
0
42
0.000000001
43
0.0000000001
44
0.0000000001
40
-1
40
-1
40
-1
40
-1
40
-0
40
-0
40
-0
40
-0
41
1
41
1
41
1
41
1
10
-88.791356602340926
20
47.89606637735362
30
0
10
-87.824862895831771
20
48.215429515156657
30
0
10
-86.026344172414738
20
49.08947599756489
30
0
10
-85.219532034807116
20
49.627350755970014
30
0
0
SPLINE
5
108
100
AcDbEntity
8
0
100
AcDbSpline
70
4
71
3
72
8
73
4
74
0
42
0.000000001
43
0.0000000001
44
0.0000000001
40
-1
40
-1
40
-1
40
-1
40
-0
40
-0
40
-0
40
-0
41
1
41
1
41
1
41
1
10
-85.219532034807116
20
49.627350755970014
30
0
10
-82.31164662217958
20
51.602359634488707
30
0
10
-80.134934709258957
20
54.753969547018556
30
0
10
-79.227271054450327
20
58.300581235252139
30
0
0
SPLINE
5
109
100
AcDbEntity
8
0
100
AcDbSpline
70
4
71
3
72
8
73
4
74
0
42
0.000000001
43
0.0000000001
44
0.0000000001
40
-1
40
-1
40
-1
40
-1
40
-0
40
-0
40
-0
40
-0
41
1
41
1
41
1
41
1
10
-79.227271054450327
20
58.300581235252139
30
0
10
-78.512906140943585
20
61.124423716878894
30
0
10
-78.512906140943585
20
64.427310905210163
30
0
10
-79.227271054450327
20
67.175514748936195
30
0
0
SPLINE
5
110
100
AcDbEntity
8
0
100
AcDbSpline
70
4
71
3
72
8
73
4
74
0
42
0.000000001
43
0.0000000001
44
0.0000000001
40
-1
40
-1
40
-1
40
-1
40
-0
40
-0
40
-0
40
-0
41
1
41
1
41
1
41
1
10
-79.227271054450327
20
67.175514748936195
30
0
10
-80.714830933164436
20
72.840008298389861
30
0
10
-84.858147431503653
20
76.840451814027745
30
0
10
-90.480619515456922
20
78.050670020439213
30
0
0
SPLINE
5
111
100
AcDbEntity
8
0
100
AcDbSpline
70
4
71
3
72
8
73
4
74
0
42
0.000000001
43
0.0000000001
44
0.0000000001
40
-1
40
-1
40
-1
40
-1
40
-0
40
-0
40
-0
40
-0
41
1
41
1
41
1
41
1
10
-90.480619515456922
20
78.050670020439213
30
0
10
-91.463921808166248
20
78.252373054841073
30
0
10
-91.690837721868391
20
78.269181641041271
30
0
10
-93.556590790086048
20
78.277585934141328
30
0
0
SPLINE
5
112
100
AcDbEntity
8
0
100
AcDbSpline
70
4
71
3
72
8
73
4
74
0
42
0.000000001
43
0.0000000001
44
0.0000000001
40
-1
40
-1
40
-1
40
-1
40
-0
40
-0
40
-0
40
-0
41
1
41
1
41
1
41
1
10
-93.556590790086048
20
78.277585934141328
30
0
10
-95.338300927302924
20
78.277585934141328
30
0
10
-95.674472651306118
20
78.252373054841073
30
0
10
-96.422454737213229
20
78.084287192839511
30
0
0
SPLINE
5
113
100
AcDbEntity
8
0
100
AcDbSpline
70
4
71
3
72
8
73
4
74
0
42
0.000000001
43
0.0000000001
44
0.0000000001
40
-1
40
-1
40
-1
40
-1
40
-0
40
-0
40
-0
40
-0
41
1
41
1
41
1
41
1
10
-96.422454737213229
20
78.084287192839511
30
0
10
-99.523638891142539
20
77.403539451733053
30
0
10
-101.95247959706558
20
75.86555381441849
30
0
10
-103.78461549288295
20
73.40309593609517
30
0
0
SPLINE
5
114
100
AcDbEntity
8
0
100
AcDbSpline
70
4
71
3
72
8
73
4
74
0
42
0.000000001
43
0.0000000001
44
0.0000000001
40
-1
40
-1
40
-1
40
-1
40
-0
40
-0
40
-0
40
-0
41
1
41
1
41
1
41
1
10
-103.78461549288295
20
73.40309593609517
30
0
10
-104.5662147511903
20
72.360963591685291
30
0
10
-105.56632563009978
20
70.369146126966427
30
0
10
-105.91090164720305
20
69.175736506755129
30
0
0
LINE
5
115
100
AcDbEntity
8
0
100
AcDbLine
10
-105.91090164720306
20
69.175736506755129
30
0
11
-105.96132740580357
21
68.990842058553397
31
0
0
LINE
5
116
100
AcDbEntity
8
0
100
AcDbLine
10
-105.96132740580357
20
68.990842058553397
30
0
11
-91.161367256563338
21
68.990842058553397
31
0
0
LINE
5
117
100
AcDbEntity
8
0
100
AcDbLine
10
-91.161367256563338
20
68.990842058553397
30
0
11
-91.161367256563338
21
60.082291372469015
31
0
0
LINE
5
118
100
AcDbEntity
8
0
100
AcDbLine
10
-91.161367256563338
20
60.082291372469015
30
0
11
-117.07180288410875
21
60.08229137246903
31
0
0
LINE
5
119
100
AcDbEntity
8
0
100
AcDbLine
10
-117.07180288410875
20
60.08229137246903
30
0
11
-117.02137712550829
21
61.906022975186296
31
0
0
SPLINE
5
120
100
AcDbEntity
8
0
100
AcDbSpline
70
4
71
3
72
8
73
4
74
0
42
0.000000001
43
0.0000000001
44
0.0000000001
40
-1
40
-1
40
-1
40
-1
40
-0
40
-0
40
-0
40
-0
41
1
41
1
41
1
41
1
10
-117.02137712550828
20
61.906022975186289
30
0
10
-116.97095136690783
20
63.796988922704173
30
0
10
-116.83648267730652
20
65.183697284217303
30
0
10
-116.53392812570365
20
66.931790249033881
30
0
0
SPLINE
5
121
100
AcDbEntity
8
0
100
AcDbSpline
70
4
71
3
72
8
73
4
74
0
42
0.000000001
43
0.0000000001
44
0.0000000001
40
-1
40
-1
40
-1
40
-1
40
-0
40
-0
40
-0
40
-0
41
1
41
1
41
1
41
1
10
-116.53392812570365
20
66.931790249033881
30
0
10
-114.48328060928424
20
78.975142261447942
30
0
10
-106.80175671581152
20
86.303685844717336
30
0
10
-95.245853703202087
20
87.236562378826164
30
0
0
SPLINE
5
122
100
AcDbEntity
8
0
100
AcDbSpline
70
4
71
3
72
8
73
4
74
0
42
0.000000001
43
0.0000000001
44
0.0000000001
40
-1
40
-1
40
-1
40
-1
40
-0
40
-0
40
-0
40
-0
41
1
41
1
41
1
41
1
10
-95.245853703202087
20
87.236562378826164
30
0
10
-93.480952152185367
20
87.379435361527541
30
0
10
-90.447002343056596
20
87.295392430526761
30
0
10
-88.93422958504226
20
87.060072223724504
30
0
0
SPLINE
5
123
100
AcDbEntity
8
0
100
AcDbSpline
70
4
71
3
72
8
73
4
74
0
42
0.000000001
43
0.0000000001
44
0.0000000001
40
-1
40
-1
40
-1
40
-1
40
-0
40
-0
40
-0
40
-0
41
1
41
1
41
1
41
1
10
-88.93422958504226
20
87.060072223724504
30
0
10
-83.563886294091404
20
86.244855793016825
30
0
10
-78.891099330447176
20
83.933675190494924
30
0
10
-75.226827538812472
20
80.294616278160461
30
0
0
SPLINE
5
124
100
AcDbEntity
8
0
100
AcDbSpline
70
4
71
3
72
8
73
4
74
0
42
0.000000001
43
0.0000000001
44
0.0000000001
40
-1
40
-1
40
-1
40
-1
40
-0
40
-0
40
-0
40
-0
41
1
41
1
41
1
41
1
10
-75.226827538812472
20
80.294616278160461
30
0
10
-71.638194385078492
20
76.722791710626609
30
0
10
-69.377439541157059
20
72.117239091782977
30
0
10
-68.537010231149111
20
66.679661456031511
30
0
0
SPLINE
5
125
100
AcDbEntity
8
0
100
AcDbSpline
70
4
71
3
72
8
73
4
74
0
42
0.000000001
43
0.0000000001
44
0.0000000001
40
-1
40
-1
40
-1
40
-1
40
-0
40
-0
40
-0
40
-0
41
1
41
1
41
1
41
1
10
-68.537010231149111
20
66.679661456031511
30
0
10
-68.326902903647124
20
65.267740215218112
30
0
10
-68.234455679546244
20
61.821980044185466
30
0
10
-68.377328662247606
20
60.275590113770875
30
0
0
SPLINE
5
126
100
AcDbEntity
8
0
100
AcDbSpline
70
4
71
3
72
8
73
4
74
0
42
0.000000001
43
0.0000000001
44
0.0000000001
40
-1
40
-1
40
-1
40
-1
40
-0
40
-0
40
-0
40
-0
41
1
41
1
41
1
41
1
10
-68.377328662247606
20
60.275590113770875
30
0
10
-69.175736506755172
20
51.610763927588778
30
0
10
-73.806502004899016
20
44.710839292423415
30
0
10
-81.336748622570298
20
40.970928862888002
30
0
0
SPLINE
5
127
100
AcDbEntity
8
0
100
AcDbSpline
70
4
71
3
72
8
73
4
74
0
42
0.000000001
43
0.0000000001
44
0.0000000001
40
-1
40
-1
40
-1
40
-1
40
-0
40
-0
40
-0
40
-0
41
1
41
1
41
1
41
1
10
-81.336748622570298
20
40.970928862888002
30
0
10
-84.563997173000885
20
39.365708880772829
30
0
10
-88.144226033634766
20
38.424428053563901
30
0
10
-91.917753635570506
20
38.205916432961814
30
0
0
SPLINE
5
128
100
AcDbEntity
8
0
100
AcDbSpline
70
4
71
3
72
8
73
4
74
0
42
0.000000001
43
0.0000000001
44
0.0000000001
40
-1
40
-1
40
-1
40
-1
40
-0
40
-0
40
-0
40
-0
41
1
41
1
41
1
41
1
10
-91.917753635570506
20
38.205916432961814
30
0
10
-100.40608966665091
20
37.701658846957059
30
0
10
-107.49090875001804
20
40.878481638787164
30
0
10
-112.23093005846293
20
47.307765860348056
30
0
0
LWPOLYLINE
5
129
100
AcDbEntity
8
0
100
AcDbPolyline
90
4
70
1
43
0.0
10
74.739378539007831
20
38.98751569126928
10
41.122206138689464
20
38.98751569126928
10
41.122206138689464
20
47.896066377353662
10
74.739378539007845
20
47.896066377353648
0
LWPOLYLINE
5
130
100
AcDbEntity
8
0
100
AcDbPolyline
90
14
70
1
43
0.0
10
116.08850059139945
20
38.98751569126928
10
80.45429784706198
20
38.98751569126928
10
80.45429784706198
20
47.131275705246409
10
91.640411963267908
20
62.326237630190278
10
102.81812178637375
20
77.521199555134217
10
91.38828317026551
20
77.546412434434473
10
79.950040261057168
20
77.563221020634614
10
79.950040261057197
20
86.471771706718968
10
116.08850059139945
20
86.471771706718954
10
116.08850059139945
20
82.328455208379722
10
116.08009629829937
20
78.193543003140576
10
93.758293824487964
20
47.938087842854038
10
104.91919506139367
20
47.912874963553797
10
116.08850059139945
20
47.896066377353648
0
SPLINE
5
131
100
AcDbEntity
8
0
100
AcDbSpline
70
4
71
3
72
8
73
4
74
0
42
0.000000001
43
0.0000000001
44
0.0000000001
40
-1
40
-1
40
-1
40
-1
40
-0
40
-0
40
-0
40
-0
41
1
41
1
41
1
41
1
10
-46.702656757142329
20
42.769447586305049
30
0
10
-51.703211151689665
20
46.341272153838901
30
0
10
-55.056524098621431
20
51.862892720591148
30
0
10
-56.107060736131402
20
58.233346890451486
30
0
0
SPLINE
5
132
100
AcDbEntity
8
0
100
AcDbSpline
70
4
71
3
72
8
73
4
74
0
42
0.000000001
43
0.0000000001
44
0.0000000001
40
-1
40
-1
40
-1
40
-1
40
-0
40
-0
40
-0
40
-0
41
1
41
1
41
1
41
1
10
-56.107060736131402
20
58.233346890451486
30
0
10
-56.703765546237037
20
61.872405802785991
30
0
10
-56.53567968423544
20
66.007318008025123
30
0
10
-55.653228908727066
20
69.453078179057769
30
0
0
SPLINE
5
133
100
AcDbEntity
8
0
100
AcDbSpline
70
4
71
3
72
8
73
4
74
0
42
0.000000001
43
0.0000000001
44
0.0000000001
40
-1
40
-1
40
-1
40
-1
40
-0
40
-0
40
-0
40
-0
41
1
41
1
41
1
41
1
10
-55.653228908727066
20
69.453078179057769
30
0
10
-53.905135943910516
20
76.268959883222308
30
0
10
-49.568520704269467
20
81.656111760373321
30
0
10
-43.391365275710953
20
84.698465862602163
30
0
0
SPLINE
5
134
100
AcDbEntity
8
0
100
AcDbSpline
70
4
71
3
72
8
73
4
74
0
42
0.000000001
43
0.0000000001
44
0.0000000001
40
-1
40
-1
40
-1
40
-1
40
-0
40
-0
40
-0
40
-0
41
1
41
1
41
1
41
1
10
-43.391365275710953
20
84.698465862602163
30
0
10
-40.878481638787136
20
85.942301241413915
30
0
10
-38.416023760463823
20
86.681879034220927
30
0
10
-35.348456778934782
20
87.118902275425057
30
0
0
SPLINE
5
135
100
AcDbEntity
8
0
100
AcDbSpline
70
4
71
3
72
8
73
4
74
0
42
0.000000001
43
0.0000000001
44
0.0000000001
40
-1
40
-1
40
-1
40
-1
40
-0
40
-0
40
-0
40
-0
41
1
41
1
41
1
41
1
10
-35.348456778934782
20
87.118902275425057
30
0
10
-33.85249260712061
20
87.329009602927044
30
0
10
-29.46545160887905
20
87.329009602927044
30
0
10
-27.9610831439648
20
87.1189022754251
30
0
0
SPLINE
5
136
100
AcDbEntity
8
0
100
AcDbSpline
70
4
71
3
72
8
73
4
74
0
42
0.000000001
43
0.0000000001
44
0.0000000001
40
-1
40
-1
40
-1
40
-1
40
-0
40
-0
40
-0
40
-0
41
1
41
1
41
1
41
1
10
-27.9610831439648
20
87.1189022754251
30
0
10
-24.64979166253346
20
86.648261861820629
30
0
10
-22.036056508408677
20
85.824641138012879
30
0
10
-19.313065543982908
20
84.404315604099395
30
0
0
SPLINE
5
137
100
AcDbEntity
8
0
100
AcDbSpline
70
4
71
3
72
8
73
4
74
0
42
0.000000001
43
0.0000000001
44
0.0000000001
40
-1
40
-1
40
-1
40
-1
40
-0
40
-0
40
-0
40
-0
41
1
41
1
41
1
41
1
10
-19.313065543982908
20
84.404315604099395
30
0
10
-12.749312632820731
20
80.983768312366976
30
0
10
-8.2698244104783125
20
74.613314142506667
30
0
10
-7.1268405488674968
20
67.05785464553513
30
0
0
SPLINE
5
138
100
AcDbEntity
8
0
100
AcDbSpline
70
4
71
3
72
8
73
4
74
0
42
0.000000001
43
0.0000000001
44
0.0000000001
40
-1
40
-1
40
-1
40
-1
40
-0
40
-0
40
-0
40
-0
41
1
41
1
41
1
41
1
10
-7.1268405488674968
20
67.05785464553513
30
0
10
-6.1519425492582602
20
60.620166130874168
30
0
10
-7.3705650487697927
20
54.24130766791373
30
0
10
-10.522174961299635
20
49.190327514765912
30
0
0
SPLINE
5
139
100
AcDbEntity
8
0
100
AcDbSpline
70
4
71
3
72
8
73
4
74
0
42
0.000000001
43
0.0000000001
44
0.0000000001
40
-1
40
-1
40
-1
40
-1
40
-0
40
-0
40
-0
40
-0
41
1
41
1
41
1
41
1
10
-10.522174961299635
20
49.190327514765912
30
0
10
-12.295480805416448
20
46.366485033139156
30
0
10
-15.060493235342625
20
43.635089775613295
30
0
10
-17.909548596269616
20
41.886996810796745
30
0
0
SPLINE
5
140
100
AcDbEntity
8
0
100
AcDbSpline
70
4
71
3
72
8
73
4
74
0
42
0.000000001
43
0.0000000001
44
0.0000000001
40
-1
40
-1
40
-1
40
-1
40
-0
40
-0
40
-0
40
-0
41
1
41
1
41
1
41
1
10
-17.909548596269616
20
41.886996810796745
30
0
10
-21.33009588800202
20
39.794327828876902
30
0
10
-25.305326524339662
20
38.542088156965036
30
0
10
-29.482260195079213
20
38.239533605362141
30
0
0
SPLINE
5
141
100
AcDbEntity
8
0
100
AcDbSpline
70
4
71
3
72
8
73
4
74
0
42
0.000000001
43
0.0000000001
44
0.0000000001
40
-1
40
-1
40
-1
40
-1
40
-0
40
-0
40
-0
40
-0
41
1
41
1
41
1
41
1
10
-29.482260195079213
20
38.239533605362141
30
0
10
-35.91994870974019
20
37.777297484857769
30
0
10
-41.937422569397185
20
39.357304587672758
30
0
10
-46.702656757142329
20
42.769447586305049
30
0
0
LINE
5
142
100
AcDbEntity
8
0
100
AcDbLine
10
34.734943382628963
20
38.979111398169188
30
0
11
22.355419646211722
21
39.004324277469408
31
0
0
SPLINE
5
143
100
AcDbEntity
8
0
100
AcDbSpline
70
4
71
3
72
8
73
4
74
0
42
0.000000001
43
0.0000000001
44
0.0000000001
40
-1
40
-1
40
-1
40
-1
40
-0
40
-0
40
-0
40
-0
41
1
41
1
41
1
41
1
10
22.355419646211729
20
39.004324277469408
30
0
10
10.77430375430203
20
39.029537156769663
30
0
10
9.9338744442940818
20
39.046345742969834
30
0
10
9.1858923583870133
20
39.189218725671196
30
0
0
SPLINE
5
144
100
AcDbEntity
8
0
100
AcDbSpline
70
4
71
3
72
8
73
4
74
0
42
0.000000001
43
0.0000000001
44
0.0000000001
40
-1
40
-1
40
-1
40
-1
40
-0
40
-0
40
-0
40
-0
41
1
41
1
41
1
41
1
10
9.1858923583870133
20
39.189218725671196
30
0
10
5.4459819288515821
20
39.903583639177938
30
0
10
3.0171412229285814
20
41.122206138689506
30
0
10
0.7311734997069147
20
43.399769568811038
30
0
0
SPLINE
5
145
100
AcDbEntity
8
0
100
AcDbSpline
70
4
71
3
72
8
73
4
74
0
42
0.000000001
43
0.0000000001
44
0.0000000001
40
-1
40
-1
40
-1
40
-1
40
-0
40
-0
40
-0
40
-0
41
1
41
1
41
1
41
1
10
0.7311734997069147
20
43.399769568811038
30
0
10
-0.48744899980461776
20
44.609987775222507
30
0
10
-1.1261752754106609
20
45.500842843830952
30
0
10
-1.8825616544178287
20
47.005211308745217
30
0
0
SPLINE
5
146
100
AcDbEntity
8
0
100
AcDbSpline
70
4
71
3
72
8
73
4
74
0
42
0.000000001
43
0.0000000001
44
0.0000000001
40
-1
40
-1
40
-1
40
-1
40
-0
40
-0
40
-0
40
-0
41
1
41
1
41
1
41
1
10
-1.8825616544178287
20
47.005211308745217
30
0
10
-3.4457601710326364
20
50.12320404887474
30
0
10
-3.9164005846370826
20
54.132051857612694
30
0
10
-3.1516099125298509
20
57.85515370094798
30
0
0
SPLINE
5
147
100
AcDbEntity
8
0
100
AcDbSpline
70
4
71
3
72
8
73
4
74
0
42
0.000000001
43
0.0000000001
44
0.0000000001
40
-1
40
-1
40
-1
40
-1
40
-0
40
-0
40
-0
40
-0
41
1
41
1
41
1
41
1
10
-3.1516099125298509
20
57.85515370094798
30
0
10
-2.5549051024241982
20
60.805060579075899
30
0
10
-0.92447224100875525
20
63.620498767602541
30
0
10
1.2186224995115418
20
65.435826077219744
30
0
0
SPLINE
5
148
100
AcDbEntity
8
0
100
AcDbSpline
70
4
71
3
72
8
73
4
74
0
42
0.000000001
43
0.0000000001
44
0.0000000001
40
-1
40
-1
40
-1
40
-1
40
-0
40
-0
40
-0
40
-0
41
1
41
1
41
1
41
1
10
1.2186224995115418
20
65.435826077219744
30
0
10
2.8826725333273111
20
66.847747318033143
30
0
10
4.4206581706418744
20
67.654559455640765
30
0
10
6.8158817041645481
20
68.368924369147535
30
0
0
SPLINE
5
149
100
AcDbEntity
8
0
100
AcDbSpline
70
4
71
3
72
8
73
4
74
0
42
0.000000001
43
0.0000000001
44
0.0000000001
40
-1
40
-1
40
-1
40
-1
40
-0
40
-0
40
-0
40
-0
41
1
41
1
41
1
41
1
10
6.8158817041645481
20
68.368924369147535
30
0
10
6.8747117558651194
20
68.385732955347706
30
0
10
6.9083289282654281
20
68.427754420848089
30
0
10
6.8915203420652649
20
68.461371593248387
30
0
0
SPLINE
5
150
100
AcDbEntity
8
0
100
AcDbSpline
70
4
71
3
72
8
73
4
74
0
42
0.000000001
43
0.0000000001
44
0.0000000001
40
-1
40
-1
40
-1
40
-1
40
-0
40
-0
40
-0
40
-0
41
1
41
1
41
1
41
1
10
6.8915203420652649
20
68.461371593248387
30
0
10
6.8747117558651194
20
68.50339305874877
30
0
10
4.4710839292423463
20
72.545858039887094
30
0
10
1.5463899304146538
20
77.462369503433678
30
0
0
SPLINE
5
151
100
AcDbEntity
8
0
100
AcDbSpline
70
4
71
3
72
8
73
4
74
0
42
0.000000001
43
0.0000000001
44
0.0000000001
40
-1
40
-1
40
-1
40
-1
40
-0
40
-0
40
-0
40
-0
41
1
41
1
41
1
41
1
10
1.5463899304146538
20
77.462369503433678
30
0
10
-1.3698997753129745
20
82.370476673880134
30
0
10
-3.7567190157355674
20
86.412941655018457
30
0
10
-3.7567190157355674
20
86.429750241218585
30
0
0
SPLINE
5
152
100
AcDbEntity
8
0
100
AcDbSpline
70
4
71
3
72
8
73
4
74
0
42
0.000000001
43
0.0000000001
44
0.0000000001
40
-1
40
-1
40
-1
40
-1
40
-0
40
-0
40
-0
40
-0
41
1
41
1
41
1
41
1
10
-3.7567190157355674
20
86.429750241218585
30
0
10
-3.7567190157355674
20
86.45496312051884
30
0
10
-1.1345795685107603
20
86.471771706718968
30
0
10
2.0758603957196535
20
86.471771706718968
30
0
0
LINE
5
153
100
AcDbEntity
8
0
100
AcDbLine
10
2.0758603957196535
20
86.471771706718968
30
0
11
7.9084398071749051
21
86.471771706718968
31
0
0
LINE
5
154
100
AcDbEntity
8
0
100
AcDbLine
10
7.9084398071749051
20
86.471771706718968
30
0
11
15.018471769842234
21
73.604798970497129
31
0
0
SPLINE
5
155
100
AcDbEntity
8
0
100
AcDbSpline
70
4
71
3
72
8
73
4
74
0
42
0.000000001
43
0.0000000001
44
0.0000000001
40
-1
40
-1
40
-1
40
-1
40
-0
40
-0
40
-0
40
-0
41
1
41
1
41
1
41
1
10
15.018471769842234
20
73.604798970497129
30
0
10
18.926468061379246
20
66.528384180230077
30
0
10
22.128503732509579
20
60.729421941175175
30
0
10
22.128503732509579
20
60.704209061874948
30
0
0
SPLINE
5
156
100
AcDbEntity
8
0
100
AcDbSpline
70
4
71
3
72
8
73
4
74
0
42
0.000000001
43
0.0000000001
44
0.0000000001
40
-1
40
-1
40
-1
40
-1
40
-0
40
-0
40
-0
40
-0
41
1
41
1
41
1
41
1
10
22.128503732509579
20
60.704209061874948
30
0
10
22.128503732509579
20
60.68740047567475
30
0
10
20.111473388490488
20
60.670591889474622
30
0
10
17.640611217067075
20
60.670591889474622
30
0
0
SPLINE
5
157
100
AcDbEntity
8
0
100
AcDbSpline
70
4
71
3
72
8
73
4
74
0
42
0.000000001
43
0.0000000001
44
0.0000000001
40
-1
40
-1
40
-1
40
-1
40
-0
40
-0
40
-0
40
-0
41
1
41
1
41
1
41
1
10
17.640611217067075
20
60.670591889474622
30
0
10
14.043573770232998
20
60.670591889474622
30
0
10
13.018250012023289
20
60.645379010174366
30
0
10
12.4383537881178
20
60.544527492973415
30
0
0
SPLINE
5
158
100
AcDbEntity
8
0
100
AcDbSpline
70
4
71
3
72
8
73
4
74
0
42
0.000000001
43
0.0000000001
44
0.0000000001
40
-1
40
-1
40
-1
40
-1
40
-0
40
-0
40
-0
40
-0
41
1
41
1
41
1
41
1
10
12.4383537881178
20
60.544527492973415
30
0
10
9.7741928753925844
20
60.082291372469058
30
0
10
7.832801169274175
20
58.443454217953544
30
0
10
7.1520534281677417
20
56.09025214993126
30
0
0
SPLINE
5
159
100
AcDbEntity
8
0
100
AcDbSpline
70
4
71
3
72
8
73
4
74
0
42
0.000000001
43
0.0000000001
44
0.0000000001
40
-1
40
-1
40
-1
40
-1
40
-0
40
-0
40
-0
40
-0
41
1
41
1
41
1
41
1
10
7.1520534281677417
20
56.09025214993126
30
0
10
6.9839675661661449
20
55.518760219125824
30
0
10
6.9587546868659178
20
55.233014253723155
30
0
10
6.9671589799659817
20
54.15726473691295
30
0
0
SPLINE
5
160
100
AcDbEntity
8
0
100
AcDbSpline
70
4
71
3
72
8
73
4
74
0
42
0.000000001
43
0.0000000001
44
0.0000000001
40
-1
40
-1
40
-1
40
-1
40
-0
40
-0
40
-0
40
-0
41
1
41
1
41
1
41
1
10
6.9671589799659817
20
54.15726473691295
30
0
10
6.9671589799659817
20
53.022685168402205
30
0
10
6.9923718592662265
20
52.829386427100346
30
0
10
7.194074893668132
20
52.22427732389464
30
0
0
SPLINE
5
161
100
AcDbEntity
8
0
100
AcDbSpline
70
4
71
3
72
8
73
4
74
0
42
0.000000001
43
0.0000000001
44
0.0000000001
40
-1
40
-1
40
-1
40
-1
40
-0
40
-0
40
-0
40
-0
41
1
41
1
41
1
41
1
10
7.194074893668132
20
52.22427732389464
30
0
10
7.8580140485744199
20
50.21565127297562
30
0
10
9.3035524617881027
20
48.887772963163044
30
0
10
11.58952018500977
20
48.173408049656302
30
0
0
LINE
5
162
100
AcDbEntity
8
0
100
AcDbLine
10
11.58952018500977
20
48.173408049656302
30
0
11
12.337502270916858
21
47.938087842854038
31
0
0
LINE
5
163
100
AcDbEntity
8
0
100
AcDbLine
10
12.337502270916858
20
47.938087842854038
30
0
11
18.48944482017512
21
47.912874963553769
31
0
0
LINE
5
164
100
AcDbEntity
8
0
100
AcDbLine
10
18.48944482017512
20
47.912874963553769
30
0
11
24.649791662533463
21
47.887662084253563
31
0
0
LINE
5
165
100
AcDbEntity
8
0
100
AcDbLine
10
24.649791662533463
20
47.887662084253563
30
0
11
24.649791662533463
21
86.471771706718968
31
0
0
LINE
5
166
100
AcDbEntity
8
0
100
AcDbLine
10
24.649791662533463
20
86.471771706718968
30
0
11
34.734943382628963
21
86.471771706718982
31
0
0
LINE
5
167
100
AcDbEntity
8
0
100
AcDbLine
10
34.734943382628963
20
86.471771706718982
30
0
11
34.734943382628963
21
38.979111398169188
31
0
0
LINE
5
168
100
AcDbEntity
8
0
100
AcDbLine
10
-0.49585329290468161
20
-127.82089375911055
30
0
11
-76.411832865923643
21
-127.79568087981031
31
0
0
LINE
5
169
100
AcDbEntity
8
0
100
AcDbLine
10
-76.411832865923643
20
-127.79568087981031
30
0
11
-76.411832865923643
21
-110.91145604175037
31
0
0
LINE
5
170
100
AcDbEntity
8
0
100
AcDbLine
10
-76.411832865923643
20
-110.91145604175037
30
0
11
-18.46423194087485
21
-69.570738282458848
31
0
0
SPLINE
5
171
100
AcDbEntity
8
0
100
AcDbSpline
70
4
71
3
72
8
73
4
74
0
42
0.000000001
43
0.0000000001
44
0.0000000001
40
-1
40
-1
40
-1
40
-1
40
-0
40
-0
40
-0
40
-0
41
1
41
1
41
1
41
1
10
-18.464231940874846
20
-69.570738282458848
30
0
10
13.404847494626972
20
-46.83712544674357
30
0
10
39.466560397973787
20
-28.204807643867102
30
0
10
39.449751811773623
20
-28.179594764566858
30
0
0
SPLINE
5
172
100
AcDbEntity
8
0
100
AcDbSpline
70
4
71
3
72
8
73
4
74
0
42
0.000000001
43
0.0000000001
44
0.0000000001
40
-1
40
-1
40
-1
40
-1
40
-0
40
-0
40
-0
40
-0
41
1
41
1
41
1
41
1
10
39.449751811773623
20
-28.179594764566858
30
0
10
39.424538932473389
20
-28.145977592166567
30
0
10
30.541201125689248
20
-21.792332008506374
30
0
10
19.708067319686656
20
-14.060382356433154
30
0
0
LINE
5
173
100
AcDbEntity
8
0
100
AcDbLine
10
19.708067319686656
20
-14.060382356433152
30
0
11
0
21
0
31
0
0
LINE
5
174
100
AcDbEntity
8
0
100
AcDbLine
10
0
20
0
30
0
11
-0.30255455160285666
21
-0.21010732750199157
31
0
0
SPLINE
5
175
100
AcDbEntity
8
0
100
AcDbSpline
70
4
71
3
72
8
73
4
74
0
42
0.000000001
43
0.0000000001
44
0.0000000001
40
-1
40
-1
40
-1
40
-1
40
-0
40
-0
40
-0
40
-0
41
1
41
1
41
1
41
1
10
-0.30255455160285771
20
-0.21010732750198935
30
0
10
-0.47064041360445452
20
-0.32776743090307869
30
0
10
-13.976339425432363
20
-9.9674916166943834
30
0
10
-30.322689505087183
20
-21.624246146504777
30
0
0
LINE
5
176
100
AcDbEntity
8
0
100
AcDbLine
10
-30.322689505087176
20
-21.624246146504777
30
0
11
-60.040269906968639
21
-42.828277638005602
31
0
0
LINE
5
177
100
AcDbEntity
8
0
100
AcDbLine
10
-60.040269906968639
20
-42.828277638005602
30
0
11
-7.4462036866705077
21
-42.912320569006383
31
0
0
LINE
5
178
100
AcDbEntity
8
0
100
AcDbLine
10
-7.4462036866705077
20
-42.912320569006383
30
0
11
-41.836571052196206
21
-67.452856421238806
31
0
0
SPLINE
5
179
100
AcDbEntity
8
0
100
AcDbSpline
70
4
71
3
72
8
73
4
74
0
42
0.000000001
43
0.0000000001
44
0.0000000001
40
-1
40
-1
40
-1
40
-1
40
-0
40
-0
40
-0
40
-0
41
1
41
1
41
1
41
1
10
-41.836571052196206
20
-67.452856421238806
30
0
10
-60.754634820475381
20
-80.95015113996665
30
0
10
-76.277364176322379
20
-92.027009445871556
30
0
10
-76.344598521123032
20
-92.060626618271883
30
0
0
SPLINE
5
180
100
AcDbEntity
8
0
100
AcDbSpline
70
4
71
3
72
8
73
4
74
0
42
0.000000001
43
0.0000000001
44
0.0000000001
40
-1
40
-1
40
-1
40
-1
40
-0
40
-0
40
-0
40
-0
41
1
41
1
41
1
41
1
10
-76.344598521123032
20
-92.060626618271883
30
0
10
-76.437045745223912
20
-92.119456669972408
30
0
10
-76.45385433142404
20
-86.354111603317833
30
0
10
-76.437045745223912
20
-57.653450666546021
30
0
0
LINE
5
181
100
AcDbEntity
8
0
100
AcDbLine
10
-76.437045745223912
20
-57.653450666546028
30
0
11
-76.411832865923657
21
-23.179040370019514
31
0
0
LINE
5
182
100
AcDbEntity
8
0
100
AcDbLine
10
-76.411832865923657
20
-23.179040370019514
30
0
11
-38.432832346664
21
3.916400584637092
31
0
0
SPLINE
5
183
100
AcDbEntity
8
0
100
AcDbSpline
70
4
71
3
72
8
73
4
74
0
42
0.000000001
43
0.0000000001
44
0.0000000001
40
-1
40
-1
40
-1
40
-1
40
-0
40
-0
40
-0
40
-0
41
1
41
1
41
1
41
1
10
-38.432832346663986
20
3.9164005846370897
30
0
10
-17.539759699866096
20
18.817212251078224
30
0
10
-0.40340606880381935
20
30.99503295309356
30
0
10
-0.3445760171032658
20
30.969820073793315
30
0
0
SPLINE
5
184
100
AcDbEntity
8
0
100
AcDbSpline
70
4
71
3
72
8
73
4
74
0
42
0.000000001
43
0.0000000001
44
0.0000000001
40
-1
40
-1
40
-1
40
-1
40
-0
40
-0
40
-0
40
-0
41
1
41
1
41
1
41
1
10
-0.3445760171032658
20
30.969820073793315
30
0
10
-0.22691591370214093
20
30.927798608292925
30
0
10
74.630122728706823
20
-22.464675456512726
30
0
10
75.18480607331206
20
-22.8848901115167
30
0
0
LINE
5
185
100
AcDbEntity
8
0
100
AcDbLine
10
75.18480607331206
20
-22.8848901115167
30
0
11
75.495764918015013
21
-23.137018904519088
31
0
0
LINE
5
186
100
AcDbEntity
8
0
100
AcDbLine
10
75.495764918015013
20
-23.137018904519088
30
0
11
75.478956331814842
21
-29.440238729578798
31
0
0
LINE
5
187
100
AcDbEntity
8
0
100
AcDbLine
10
75.478956331814842
20
-29.440238729578798
30
0
11
75.453743452514615
21
-35.751862847738572
31
0
0
LINE
5
188
100
AcDbEntity
8
0
100
AcDbLine
10
75.453743452514615
20
-35.751862847738572
30
0
11
26.885333627154637
21
-70.402763299366725
31
0
0
SPLINE
5
189
100
AcDbEntity
8
0
100
AcDbSpline
70
4
71
3
72
8
73
4
74
0
42
0.000000001
43
0.0000000001
44
0.0000000001
40
-1
40
-1
40
-1
40
-1
40
-0
40
-0
40
-0
40
-0
41
1
41
1
41
1
41
1
10
26.885333627154637
20
-70.40276329936674
30
0
10
0.17649015510168786
20
-89.4552957572472
30
0
10
-21.716693370605647
20
-105.08728092339524
30
0
10
-21.767119129206137
20
-105.13770668199571
30
0
0
SPLINE
5
190
100
AcDbEntity
8
0
100
AcDbSpline
70
4
71
3
72
8
73
4
74
0
42
0.000000001
43
0.0000000001
44
0.0000000001
40
-1
40
-1
40
-1
40
-1
40
-0
40
-0
40
-0
40
-0
41
1
41
1
41
1
41
1
10
-21.767119129206137
20
-105.13770668199571
30
0
10
-21.834353474006775
20
-105.20494102679636
30
0
10
-11.429838616108237
20
-105.22174961299652
30
0
10
14.900811666441145
20
-105.21334531989643
30
0
0
LINE
5
191
100
AcDbEntity
8
0
100
AcDbLine
10
14.900811666441138
20
-105.2133453198964
30
0
11
51.66959397928936
21
-105.18813244059618
31
0
0
LINE
5
192
100
AcDbEntity
8
0
100
AcDbLine
10
51.66959397928936
20
-105.18813244059618
30
0
11
51.711615444789764
21
-85.967514120714156
31
0
0
LINE
5
193
100
AcDbEntity
8
0
100
AcDbLine
10
51.711615444789764
20
-85.967514120714156
30
0
11
51.753636910290155
21
-66.738491507732036
31
0
0
LINE
5
194
100
AcDbEntity
8
0
100
AcDbLine
10
51.753636910290155
20
-66.738491507732036
30
0
11
63.603690181402385
21
-58.283772649051961
31
0
0
LINE
5
195
100
AcDbEntity
8
0
100
AcDbLine
10
63.603690181402385
20
-58.283772649051961
30
0
11
75.453743452514615
21
-49.837458083471958
31
0
0
LINE
5
196
100
AcDbEntity
8
0
100
AcDbLine
10
75.453743452514615
20
-49.837458083471958
30
0
11
75.478956331814842
21
-88.73252655064033
31
0
0
SPLINE
5
197
100
AcDbEntity
8
0
100
AcDbSpline
70
4
71
3
72
8
73
4
74
0
42
0.000000001
43
0.0000000001
44
0.0000000001
40
-1
40
-1
40
-1
40
-1
40
-0
40
-0
40
-0
40
-0
41
1
41
1
41
1
41
1
10
75.478956331814842
20
-88.732526550640344
30
0
10
75.487360624914942
20
-110.12145249034292
30
0
10
75.478956331814857
20
-127.6780207764092
30
0
10
75.453743452514615
20
-127.73685082810974
30
0
0
SPLINE
5
198
100
AcDbEntity
8
0
100
AcDbSpline
70
4
71
3
72
8
73
4
74
0
42
0.000000001
43
0.0000000001
44
0.0000000001
40
-1
40
-1
40
-1
40
-1
40
-0
40
-0
40
-0
40
-0
41
1
41
1
41
1
41
1
10
75.453743452514615
20
-127.73685082810974
30
0
10
75.428530573214388
20
-127.82089375911053
30
0
10
60.19154718277008
20
-127.83770234531067
30
0
10
-0.49585329290468161
20
-127.82089375911055
30
0
0
LWPOLYLINE
5
199
100
AcDbEntity
8
0
100
AcDbPolyline
90
10
70
1
43
0.0
10
74.739378539007816
20
57.813132235447554
10
41.626463724694233
20
57.813132235447561
10
41.626463724694233
20
66.721682921531908
10
53.115132392503028
20
66.738491507732064
10
64.612205353411923
20
66.76370438703232
10
64.63741823271215
20
72.159260557283432
10
64.654226818912321
20
77.563221020634629
10
41.122206138689457
20
77.563221020634614
10
41.12220613868945
20
86.471771706718968
10
74.739378539007831
20
86.471771706718982
0
CIRCLE
5
200
100
AcDbEntity
8
0
100
AcDbCircle
10
217.99999999999866
20
-251.81000000000955
30
0
40
2.7499999999999858
210
0
220
0
230
1
0
CIRCLE
5
201
100
AcDbEntity
8
0
100
AcDbCircle
10
254.00000000000401
20
-63.81000000000693
30
0
40
2.7499999999999858
210
0
220
0
230
1
0
CIRCLE
5
202
100
AcDbEntity
8
0
100
AcDbCircle
10
254.00000000000387
20
88.189999999993063
30
0
40
2.7499999999999858
210
0
220
0
230
1
0
CIRCLE
5
203
100
AcDbEntity
8
0
100
AcDbCircle
10
254.00000000000415
20
-215.81000000000697
30
0
40
2.7500000000000213
210
0
220
0
230
1
0
CIRCLE
5
204
100
AcDbEntity
8
0
100
AcDbCircle
10
-254.00000000000017
20
-215.81000000000697
30
0
40
2.7500000000000213
210
0
220
0
230
1
0
CIRCLE
5
205
100
AcDbEntity
8
0
100
AcDbCircle
10
-253.99999999999989
20
88.189999999993063
30
0
40
2.7499999999999858
210
0
220
0
230
1
0
CIRCLE
5
206
100
AcDbEntity
8
0
100
AcDbCircle
10
-254.00000000000003
20
-63.81000000000693
30
0
40
2.7499999999999858
210
0
220
0
230
1
0
CIRCLE
5
207
100
AcDbEntity
8
0
100
AcDbCircle
10
-218.00000000000142
20
-251.81000000000935
30
0
40
2.7499999999999858
210
0
220
0
230
1
0
CIRCLE
5
208
100
AcDbEntity
8
0
100
AcDbCircle
10
-95.500000000001393
20
-251.81000000000944
30
2.2204460492503131e-15
40
2.7500000000000036
210
0
220
0
230
1
0
CIRCLE
5
209
100
AcDbEntity
8
0
100
AcDbCircle
10
118.99999999999862
20
188.18999999998414
30
2.2204460492503131e-15
40
2.7500000000000036
210
0
220
0
230
1
0
CIRCLE
5
210
100
AcDbEntity
8
0
100
AcDbCircle
10
-119.00000000000136
20
188.18999999998437
30
2.2204460492503131e-15
40
2.7499999999999858
210
0
220
0
230
1
0
CIRCLE
5
211
100
AcDbEntity
8
0
100
AcDbCircle
10
65.999999999998607
20
-251.8100000000095
30
2.2204460492503131e-15
40
2.7499999999999947
210
0
220
0
230
1
0
SPLINE
5
212
100
AcDbEntity
8
0
100
AcDbSpline
70
4
71
3
72
8
73
4
74
0
42
0.000000001
43
0.0000000001
44
0.0000000001
40
-1
40
-1
40
-1
40
-1
40
0
40
0
40
0
40
0
41
1
41
1
41
1
41
1
10
-22.204142370410274
20
50.560227290078871
30
0
10
-18.228911734072632
20
54.022796047311687
30
0
10
-16.405180131355365
20
60.216760062070321
30
0
10
-17.548163992966195
20
66.335085438928289
30
0
0
SPLINE
5
213
100
AcDbEntity
8
0
100
AcDbSpline
70
4
71
3
72
8
73
4
74
0
42
0.000000001
43
0.0000000001
44
0.0000000001
40
-1
40
-1
40
-1
40
-1
40
0
40
0
40
0
40
0
41
1
41
1
41
1
41
1
10
-17.548163992966195
20
66.335085438928289
30
0
10
-18.581892044275989
20
71.856706005680536
30
0
10
-22.027652215308613
20
76.008426797119895
30
0
10
-26.902142213354779
20
77.605242486135012
30
0
0
SPLINE
5
214
100
AcDbEntity
8
0
100
AcDbSpline
70
4
71
3
72
8
73
4
74
0
42
0.000000001
43
0.0000000001
44
0.0000000001
40
-1
40
-1
40
-1
40
-1
40
0
40
0
40
0
40
0
41
1
41
1
41
1
41
1
10
-26.902142213354779
20
77.605242486135012
30
0
10
-28.591405126470775
20
78.159925830740264
30
0
10
-29.440238729578823
20
78.277585934141328
30
0
10
-31.658972107999823
20
78.277585934141328
30
0
0
SPLINE
5
215
100
AcDbEntity
8
0
100
AcDbSpline
70
4
71
3
72
8
73
4
74
0
42
0.000000001
43
0.0000000001
44
0.0000000001
40
-1
40
-1
40
-1
40
-1
40
0
40
0
40
0
40
0
41
1
41
1
41
1
41
1
10
-31.658972107999823
20
78.277585934141328
30
0
10
-33.390256486616224
20
78.277585934141328
30
0
10
-33.751641089919644
20
78.252373054841073
30
0
10
-34.592070399927614
20
78.084287192839511
30
0
0
SPLINE
5
216
100
AcDbEntity
8
0
100
AcDbSpline
70
4
71
3
72
8
73
4
74
0
42
0.000000001
43
0.0000000001
44
0.0000000001
40
-1
40
-1
40
-1
40
-1
40
0
40
0
40
0
40
0
41
1
41
1
41
1
41
1
10
-34.592070399927614
20
78.084287192839511
30
0
10
-37.441125760854604
20
77.504390968934032
30
0
10
-39.73549777717632
20
76.285768469422507
30
0
10
-41.685293776394793
20
74.3107595909038
30
0
0
SPLINE
5
217
100
AcDbEntity
8
0
100
AcDbSpline
70
4
71
3
72
8
73
4
74
0
42
0.000000001
43
0.0000000001
44
0.0000000001
40
-1
40
-1
40
-1
40
-1
40
0
40
0
40
0
40
0
41
1
41
1
41
1
41
1
10
-41.685293776394793
20
74.3107595909038
30
0
10
-43.819984223815005
20
72.150856264183304
30
0
10
-45.189883999127993
20
69.385843834257116
30
0
10
-45.778184516133564
20
66.049339473525549
30
0
0
SPLINE
5
218
100
AcDbEntity
8
0
100
AcDbSpline
70
4
71
3
72
8
73
4
74
0
42
0.000000001
43
0.0000000001
44
0.0000000001
40
-1
40
-1
40
-1
40
-1
40
0
40
0
40
0
40
0
41
1
41
1
41
1
41
1
10
-45.778184516133564
20
66.049339473525549
30
0
10
-46.038717602236041
20
64.561779594811469
30
0
10
-46.105951947036658
20
61.880810095886062
30
0
10
-45.912653205734834
20
60.351228751671556
30
0
0
SPLINE
5
219
100
AcDbEntity
8
0
100
AcDbSpline
70
4
71
3
72
8
73
4
74
0
42
0.000000001
43
0.0000000001
44
0.0000000001
40
-1
40
-1
40
-1
40
-1
40
0
40
0
40
0
40
0
41
1
41
1
41
1
41
1
10
-45.912653205734834
20
60.351228751671556
30
0
10
-44.962968085425842
20
52.930237944301282
30
0
10
-40.155712432180309
20
47.938087842854017
30
0
10
-33.255787797014939
20
47.223722929347232
30
0
0
SPLINE
5
220
100
AcDbEntity
8
0
100
AcDbSpline
70
4
71
3
72
8
73
4
74
0
42
0.000000001
43
0.0000000001
44
0.0000000001
40
-1
40
-1
40
-1
40
-1
40
0
40
0
40
0
40
0
41
1
41
1
41
1
41
1
10
-33.255787797014939
20
47.223722929347232
30
0
10
-29.137684177975942
20
46.795103981243201
30
0
10
-25.128836369237987
20
48.005322187654698
30
0
10
-22.204142370410274
20
50.560227290078871
30
0
0
ENDSEC
0
SECTION
2
OBJECTS
0
DICTIONARY
5
C
100
AcDbDictionary
3
ACAD_GROUP
350
D
3
ACAD_MLINESTYLE
350
17
0
DICTIONARY
5
D
100
AcDbDictionary
0
DICTIONARY
5
1A
330
C
100
AcDbDictionary
0
DICTIONARY
5
17
100
AcDbDictionary
0
ENDSEC
0
EOF
